<svg viewBox="0 0 1000 1194" xmlns="http://www.w3.org/2000/svg" font-family="'Segoe UI',system-ui,sans-serif">
  <defs>
    <radialGradient id="bg1" cx="50%" cy="25%" r="80%">
      <stop offset="0%" stop-color="#13104e"/>
      <stop offset="100%" stop-color="#060510"/>
    </radialGradient>
    <linearGradient id="lineArea1" x1="0" y1="0" x2="0" y2="1">
      <stop offset="0%" stop-color="#6C63FF" stop-opacity="0.35"/>
      <stop offset="100%" stop-color="#6C63FF" stop-opacity="0.02"/>
    </linearGradient>
    <linearGradient id="bar1a" x1="0" y1="0" x2="0" y2="1">
      <stop offset="0%" stop-color="#818cf8"/>
      <stop offset="100%" stop-color="#4F46E5"/>
    </linearGradient>
    <filter id="glow1"><feGaussianBlur stdDeviation="6" result="b"/><feMerge><feMergeNode in="b"/><feMergeNode in="SourceGraphic"/></feMerge></filter>
    <clipPath id="clip1"><rect x="70" y="300" width="540" height="210"/></clipPath>
    <clipPath id="clipBar"><rect x="70" y="600" width="390" height="200"/></clipPath>
  </defs>

  <!-- Background -->
  <rect width="1000" height="1194" fill="url(#bg1)"/>
  <!-- Subtle grid dots -->
  <pattern id="dots" x="0" y="0" width="40" height="40" patternUnits="userSpaceOnUse">
    <circle cx="20" cy="20" r="1" fill="rgba(108,99,255,0.12)"/>
  </pattern>
  <rect width="1000" height="1194" fill="url(#dots)"/>

  <!-- Header bar -->
  <rect x="0" y="0" width="1000" height="72" fill="rgba(108,99,255,0.06)"/>
  <line x1="0" y1="72" x2="1000" y2="72" stroke="rgba(108,99,255,0.22)" stroke-width="1"/>
  <text x="32" y="26" fill="#818cf8" font-size="11" letter-spacing="2" opacity="0.7">DATA ANALYTICS</text>
  <text x="32" y="52" fill="#e0e7ff" font-size="22" font-weight="700" letter-spacing="0.5">Portfolio Dashboard</text>
  <!-- Status pill -->
  <rect x="840" y="22" width="130" height="30" rx="15" fill="rgba(34,197,94,0.15)" stroke="rgba(34,197,94,0.4)" stroke-width="1"/>
  <circle cx="860" cy="37" r="5" fill="#22c55e"><animate attributeName="opacity" values="1;0.4;1" dur="2s" repeatCount="indefinite"/></circle>
  <text x="873" y="42" fill="#86efac" font-size="12" font-weight="600">LIVE DATA</text>

  <!-- KPI CARDS ROW -->
  <!-- Card 1: Accuracy -->
  <rect x="32" y="90" width="290" height="118" rx="16" fill="rgba(108,99,255,0.09)" stroke="rgba(108,99,255,0.28)" stroke-width="1.5"/>
  <text x="52" y="118" fill="#818cf8" font-size="11" letter-spacing="1.8">ACCURACY RATE</text>
  <text x="52" y="162" fill="#e0e7ff" font-size="40" font-weight="700">98.5%</text>
  <text x="52" y="192" fill="#86efac" font-size="12">▲ 2.3% vs last quarter</text>
  <polyline points="208,170 222,158 236,163 250,148 264,152 278,138 295,143"
    fill="none" stroke="#6C63FF" stroke-width="2" stroke-linecap="round" opacity="0.8"/>

  <!-- Card 2: Projects -->
  <rect x="355" y="90" width="290" height="118" rx="16" fill="rgba(79,70,229,0.09)" stroke="rgba(79,70,229,0.28)" stroke-width="1.5"/>
  <text x="375" y="118" fill="#818cf8" font-size="11" letter-spacing="1.8">TOTAL PROJECTS</text>
  <text x="375" y="162" fill="#e0e7ff" font-size="40" font-weight="700">10+</text>
  <text x="375" y="192" fill="#86efac" font-size="12">▲ 3 new this year</text>
  <rect x="510" y="168" width="14" height="18" rx="3" fill="rgba(108,99,255,0.5)"/>
  <rect x="528" y="154" width="14" height="32" rx="3" fill="rgba(108,99,255,0.65)"/>
  <rect x="546" y="160" width="14" height="26" rx="3" fill="rgba(108,99,255,0.55)"/>
  <rect x="564" y="146" width="14" height="40" rx="3" fill="rgba(108,99,255,0.8)"/>
  <rect x="582" y="150" width="14" height="36" rx="3" fill="#6C63FF"/>
  <rect x="600" y="138" width="14" height="48" rx="3" fill="#818cf8"/>

  <!-- Card 3: Experience -->
  <rect x="678" y="90" width="290" height="118" rx="16" fill="rgba(99,102,241,0.09)" stroke="rgba(99,102,241,0.28)" stroke-width="1.5"/>
  <text x="698" y="118" fill="#818cf8" font-size="11" letter-spacing="1.8">YEARS EXPERIENCE</text>
  <text x="698" y="162" fill="#e0e7ff" font-size="40" font-weight="700">2+</text>
  <text x="698" y="192" fill="#a5b4fc" font-size="12">Ecommerce · Finance · Healthcare</text>
  <circle cx="900" cy="145" r="30" fill="none" stroke="rgba(108,99,255,0.18)" stroke-width="8"/>
  <circle cx="900" cy="145" r="30" fill="none" stroke="#6C63FF" stroke-width="8"
    stroke-linecap="round" stroke-dasharray="0 188" transform="rotate(-90 900 145)">
    <animate attributeName="stroke-dasharray" from="0 188" to="132 188"
      dur="2s" begin="0.3s" fill="freeze" repeatCount="indefinite"/>
  </circle>
  <text x="900" y="150" text-anchor="middle" fill="#c7d2fe" font-size="14" font-weight="700">70%</text>

  <!-- LINE CHART CARD -->
  <rect x="32" y="230" width="590" height="290" rx="18" fill="rgba(108,99,255,0.07)" stroke="rgba(108,99,255,0.22)" stroke-width="1.5"/>
  <text x="52" y="262" fill="#a5b4fc" font-size="14" font-weight="600" letter-spacing="0.5">REVENUE TREND</text>
  <text x="52" y="282" fill="#636380" font-size="11">Jan – Jun 2024</text>
  <text x="540" y="262" fill="#86efac" font-size="13" font-weight="600" text-anchor="end">+24.8% ▲</text>
  <line x1="70" y1="300" x2="600" y2="300" stroke="rgba(255,255,255,0.06)" stroke-width="1"/>
  <line x1="70" y1="335" x2="600" y2="335" stroke="rgba(255,255,255,0.06)" stroke-width="1"/>
  <line x1="70" y1="370" x2="600" y2="370" stroke="rgba(255,255,255,0.06)" stroke-width="1"/>
  <line x1="70" y1="405" x2="600" y2="405" stroke="rgba(255,255,255,0.06)" stroke-width="1"/>
  <line x1="70" y1="440" x2="600" y2="440" stroke="rgba(255,255,255,0.06)" stroke-width="1"/>
  <text x="58" y="304" fill="#636380" font-size="10" text-anchor="end">80K</text>
  <text x="58" y="339" fill="#636380" font-size="10" text-anchor="end">60K</text>
  <text x="58" y="374" fill="#636380" font-size="10" text-anchor="end">40K</text>
  <text x="58" y="409" fill="#636380" font-size="10" text-anchor="end">20K</text>
  <text x="58" y="444" fill="#636380" font-size="10" text-anchor="end">0</text>
  <polygon points="70,440 155,398 242,412 329,362 418,375 506,324 590,339 590,440"
    fill="url(#lineArea1)"/>
  <polyline points="70,440 155,398 242,412 329,362 418,375 506,324 590,339"
    fill="none" stroke="#6C63FF" stroke-width="3" stroke-linecap="round" stroke-linejoin="round"
    stroke-dasharray="680" stroke-dashoffset="680">
    <animate attributeName="stroke-dashoffset" from="680" to="0" dur="3s" begin="0.2s" repeatCount="indefinite"/>
  </polyline>
  <circle cx="70"  cy="440" r="5" fill="#6C63FF" stroke="#0d0b22" stroke-width="2"/>
  <circle cx="155" cy="398" r="5" fill="#6C63FF" stroke="#0d0b22" stroke-width="2"/>
  <circle cx="242" cy="412" r="5" fill="#6C63FF" stroke="#0d0b22" stroke-width="2"/>
  <circle cx="329" cy="362" r="5" fill="#6C63FF" stroke="#0d0b22" stroke-width="2"/>
  <circle cx="418" cy="375" r="5" fill="#6C63FF" stroke="#0d0b22" stroke-width="2"/>
  <circle cx="506" cy="324" r="5" fill="#818cf8" stroke="#0d0b22" stroke-width="2"/>
  <circle cx="590" cy="339" r="6" fill="#c7d2fe" stroke="#0d0b22" stroke-width="2" filter="url(#glow1)">
    <animate attributeName="r" values="5;8;5" dur="2s" repeatCount="indefinite"/>
  </circle>
  <text x="70"  y="462" fill="#636380" font-size="10" text-anchor="middle">Jan</text>
  <text x="155" y="462" fill="#636380" font-size="10" text-anchor="middle">Feb</text>
  <text x="242" y="462" fill="#636380" font-size="10" text-anchor="middle">Mar</text>
  <text x="329" y="462" fill="#636380" font-size="10" text-anchor="middle">Apr</text>
  <text x="418" y="462" fill="#636380" font-size="10" text-anchor="middle">May</text>
  <text x="506" y="462" fill="#636380" font-size="10" text-anchor="middle">Jun</text>
  <rect x="554" y="305" width="76" height="26" rx="6" fill="#6C63FF"/>
  <text x="592" y="323" text-anchor="middle" fill="white" font-size="12" font-weight="600">$68.4K</text>
  <polygon points="592,331 584,340 600,340" fill="#6C63FF"/>

  <!-- DONUT CHART CARD -->
  <rect x="644" y="230" width="324" height="290" rx="18" fill="rgba(108,99,255,0.07)" stroke="rgba(108,99,255,0.22)" stroke-width="1.5"/>
  <text x="664" y="262" fill="#a5b4fc" font-size="14" font-weight="600" letter-spacing="0.5">SKILL DISTRIBUTION</text>
  <circle cx="806" cy="375" r="80" fill="none" stroke="rgba(108,99,255,0.12)" stroke-width="28"/>
  <circle cx="806" cy="375" r="80" fill="none" stroke="#6C63FF" stroke-width="28"
    stroke-dasharray="0 502" transform="rotate(-90 806 375)">
    <animate attributeName="stroke-dasharray" from="0 502" to="125 502" dur="1.5s" fill="freeze" repeatCount="indefinite"/>
  </circle>
  <circle cx="806" cy="375" r="80" fill="none" stroke="#4F46E5" stroke-width="28"
    stroke-dasharray="0 502" stroke-dashoffset="-125" transform="rotate(-90 806 375)">
    <animate attributeName="stroke-dasharray" from="0 502" to="100 502" dur="1.5s" begin="0.2s" fill="freeze" repeatCount="indefinite"/>
  </circle>
  <circle cx="806" cy="375" r="80" fill="none" stroke="#818cf8" stroke-width="28"
    stroke-dasharray="0 502" stroke-dashoffset="-225" transform="rotate(-90 806 375)">
    <animate attributeName="stroke-dasharray" from="0 502" to="75 502" dur="1.5s" begin="0.4s" fill="freeze" repeatCount="indefinite"/>
  </circle>
  <circle cx="806" cy="375" r="80" fill="none" stroke="#a5b4fc" stroke-width="28"
    stroke-dasharray="0 502" stroke-dashoffset="-300" transform="rotate(-90 806 375)">
    <animate attributeName="stroke-dasharray" from="0 502" to="60 502" dur="1.5s" begin="0.6s" fill="freeze" repeatCount="indefinite"/>
  </circle>
  <text x="806" y="368" text-anchor="middle" fill="#c7d2fe" font-size="24" font-weight="700">4</text>
  <text x="806" y="386" text-anchor="middle" fill="#818cf8" font-size="11">SKILLS</text>
  <circle cx="667" cy="478" r="5" fill="#6C63FF"/>
  <text x="677" y="483" fill="#a5b4fc" font-size="11">SQL · 25%</text>
  <circle cx="667" cy="498" r="5" fill="#4F46E5"/>
  <text x="677" y="503" fill="#a5b4fc" font-size="11">Python · 20%</text>
  <circle cx="782" cy="478" r="5" fill="#818cf8"/>
  <text x="792" y="483" fill="#a5b4fc" font-size="11">Power BI · 15%</text>
  <circle cx="782" cy="498" r="5" fill="#a5b4fc"/>
  <text x="792" y="503" fill="#a5b4fc" font-size="11">Tableau · 12%</text>

  <!-- BAR CHART CARD -->
  <rect x="32" y="542" width="456" height="298" rx="18" fill="rgba(108,99,255,0.07)" stroke="rgba(108,99,255,0.22)" stroke-width="1.5"/>
  <text x="52" y="574" fill="#a5b4fc" font-size="14" font-weight="600" letter-spacing="0.5">MONTHLY PERFORMANCE</text>
  <text x="52" y="594" fill="#636380" font-size="11">Queries processed (thousands)</text>
  <line x1="72" y1="612" x2="468" y2="612" stroke="rgba(255,255,255,0.05)" stroke-width="1"/>
  <line x1="72" y1="644" x2="468" y2="644" stroke="rgba(255,255,255,0.05)" stroke-width="1"/>
  <line x1="72" y1="676" x2="468" y2="676" stroke="rgba(255,255,255,0.05)" stroke-width="1"/>
  <line x1="72" y1="708" x2="468" y2="708" stroke="rgba(255,255,255,0.05)" stroke-width="1"/>
  <rect x="80"  y="686" width="44" height="54"  rx="5" fill="url(#bar1a)" opacity="0.7">
    <animate attributeName="height" from="0" to="54"  dur="1.0s" fill="freeze" repeatCount="indefinite"/>
    <animate attributeName="y"      from="740" to="686" dur="1.0s" fill="freeze" repeatCount="indefinite"/>
  </rect>
  <rect x="138" y="658" width="44" height="82"  rx="5" fill="url(#bar1a)" opacity="0.8">
    <animate attributeName="height" from="0" to="82"  dur="1.2s" fill="freeze" repeatCount="indefinite"/>
    <animate attributeName="y"      from="740" to="658" dur="1.2s" fill="freeze" repeatCount="indefinite"/>
  </rect>
  <rect x="196" y="670" width="44" height="70"  rx="5" fill="url(#bar1a)" opacity="0.75">
    <animate attributeName="height" from="0" to="70"  dur="1.1s" fill="freeze" repeatCount="indefinite"/>
    <animate attributeName="y"      from="740" to="670" dur="1.1s" fill="freeze" repeatCount="indefinite"/>
  </rect>
  <rect x="254" y="628" width="44" height="112" rx="5" fill="url(#bar1a)" opacity="0.9">
    <animate attributeName="height" from="0" to="112" dur="1.3s" fill="freeze" repeatCount="indefinite"/>
    <animate attributeName="y"      from="740" to="628" dur="1.3s" fill="freeze" repeatCount="indefinite"/>
  </rect>
  <rect x="312" y="640" width="44" height="100" rx="5" fill="url(#bar1a)" opacity="0.85">
    <animate attributeName="height" from="0" to="100" dur="1.25s" fill="freeze" repeatCount="indefinite"/>
    <animate attributeName="y"      from="740" to="640" dur="1.25s" fill="freeze" repeatCount="indefinite"/>
  </rect>
  <rect x="370" y="608" width="44" height="132" rx="5" fill="#6C63FF" filter="url(#glow1)">
    <animate attributeName="height" from="0" to="132" dur="1.4s" fill="freeze" repeatCount="indefinite"/>
    <animate attributeName="y"      from="740" to="608" dur="1.4s" fill="freeze" repeatCount="indefinite"/>
  </rect>
  <text x="102" y="756" fill="#636380" font-size="10" text-anchor="middle">Jan</text>
  <text x="160" y="756" fill="#636380" font-size="10" text-anchor="middle">Feb</text>
  <text x="218" y="756" fill="#636380" font-size="10" text-anchor="middle">Mar</text>
  <text x="276" y="756" fill="#636380" font-size="10" text-anchor="middle">Apr</text>
  <text x="334" y="756" fill="#636380" font-size="10" text-anchor="middle">May</text>
  <text x="392" y="756" fill="#636380" font-size="10" text-anchor="middle">Jun</text>
  <line x1="72" y1="742" x2="468" y2="742" stroke="rgba(255,255,255,0.12)" stroke-width="1.5"/>

  <!-- SCATTER PLOT CARD -->
  <rect x="510" y="542" width="458" height="298" rx="18" fill="rgba(108,99,255,0.07)" stroke="rgba(108,99,255,0.22)" stroke-width="1.5"/>
  <text x="530" y="574" fill="#a5b4fc" font-size="14" font-weight="600" letter-spacing="0.5">INSIGHT CORRELATION</text>
  <text x="530" y="594" fill="#636380" font-size="11">Data quality vs. business impact</text>
  <line x1="548" y1="612" x2="948" y2="612" stroke="rgba(255,255,255,0.05)" stroke-width="1"/>
  <line x1="548" y1="644" x2="948" y2="644" stroke="rgba(255,255,255,0.05)" stroke-width="1"/>
  <line x1="548" y1="676" x2="948" y2="676" stroke="rgba(255,255,255,0.05)" stroke-width="1"/>
  <line x1="548" y1="708" x2="948" y2="708" stroke="rgba(255,255,255,0.05)" stroke-width="1"/>
  <line x1="614" y1="605" x2="614" y2="742" stroke="rgba(255,255,255,0.05)" stroke-width="1"/>
  <line x1="680" y1="605" x2="680" y2="742" stroke="rgba(255,255,255,0.05)" stroke-width="1"/>
  <line x1="746" y1="605" x2="746" y2="742" stroke="rgba(255,255,255,0.05)" stroke-width="1"/>
  <line x1="812" y1="605" x2="812" y2="742" stroke="rgba(255,255,255,0.05)" stroke-width="1"/>
  <line x1="878" y1="605" x2="878" y2="742" stroke="rgba(255,255,255,0.05)" stroke-width="1"/>
  <line x1="555" y1="735" x2="940" y2="618" stroke="rgba(108,99,255,0.35)" stroke-width="1.5" stroke-dasharray="6 4"/>
  <circle cx="580" cy="720" r="12" fill="rgba(108,99,255,0.5)"  stroke="#6C63FF" stroke-width="1.5"/>
  <circle cx="625" cy="704" r="8"  fill="rgba(108,99,255,0.55)" stroke="#6C63FF" stroke-width="1.5"/>
  <circle cx="660" cy="692" r="16" fill="rgba(79,70,229,0.55)"  stroke="#4F46E5" stroke-width="1.5"/>
  <circle cx="705" cy="678" r="10" fill="rgba(108,99,255,0.6)"  stroke="#6C63FF" stroke-width="1.5"/>
  <circle cx="740" cy="660" r="14" fill="rgba(99,102,241,0.6)"  stroke="#818cf8" stroke-width="1.5"/>
  <circle cx="782" cy="648" r="8"  fill="rgba(108,99,255,0.65)" stroke="#6C63FF" stroke-width="1.5"/>
  <circle cx="820" cy="636" r="18" fill="rgba(79,70,229,0.65)"  stroke="#4F46E5" stroke-width="1.5" filter="url(#glow1)"/>
  <circle cx="868" cy="624" r="10" fill="rgba(129,140,248,0.7)" stroke="#818cf8" stroke-width="1.5"/>
  <circle cx="910" cy="618" r="14" fill="#6C63FF" stroke="#c7d2fe" stroke-width="1.5" filter="url(#glow1)"/>
  <line x1="548" y1="742" x2="948" y2="742" stroke="rgba(255,255,255,0.12)" stroke-width="1.5"/>
  <line x1="548" y1="605" x2="548" y2="742" stroke="rgba(255,255,255,0.12)" stroke-width="1.5"/>
  <text x="748" y="760" fill="#636380" font-size="10" text-anchor="middle">Data Quality Score →</text>
  <text x="530" y="680" fill="#636380" font-size="10" text-anchor="middle" transform="rotate(-90 530 680)">Impact →</text>

  <!-- BOTTOM METRICS STRIP -->
  <rect x="32" y="862" width="214" height="100" rx="14" fill="rgba(108,99,255,0.08)" stroke="rgba(108,99,255,0.22)" stroke-width="1"/>
  <text x="52" y="890" fill="#636380" font-size="11" letter-spacing="1.2">SQL QUERIES</text>
  <text x="52" y="926" fill="#c7d2fe" font-size="30" font-weight="700">1.2M+</text>
  <text x="52" y="948" fill="#818cf8" font-size="11">Executed to date</text>
  <rect x="263" y="862" width="214" height="100" rx="14" fill="rgba(108,99,255,0.08)" stroke="rgba(108,99,255,0.22)" stroke-width="1"/>
  <text x="283" y="890" fill="#636380" font-size="11" letter-spacing="1.2">DASHBOARDS</text>
  <text x="283" y="926" fill="#c7d2fe" font-size="30" font-weight="700">25+</text>
  <text x="283" y="948" fill="#818cf8" font-size="11">Built &amp; deployed</text>
  <rect x="494" y="862" width="214" height="100" rx="14" fill="rgba(108,99,255,0.08)" stroke="rgba(108,99,255,0.22)" stroke-width="1"/>
  <text x="514" y="890" fill="#636380" font-size="11" letter-spacing="1.2">DATASETS</text>
  <text x="514" y="926" fill="#c7d2fe" font-size="30" font-weight="700">50M+</text>
  <text x="514" y="948" fill="#818cf8" font-size="11">Rows processed</text>
  <rect x="725" y="862" width="243" height="100" rx="14" fill="rgba(108,99,255,0.08)" stroke="rgba(108,99,255,0.22)" stroke-width="1"/>
  <text x="745" y="890" fill="#636380" font-size="11" letter-spacing="1.2">DOMAINS</text>
  <text x="745" y="926" fill="#c7d2fe" font-size="30" font-weight="700">3</text>
  <text x="745" y="948" fill="#818cf8" font-size="11">Finance · Health · Ecom</text>

  <!-- TOOLS ROW -->
  <rect x="32" y="984" width="936" height="60" rx="14" fill="rgba(108,99,255,0.06)" stroke="rgba(108,99,255,0.18)" stroke-width="1"/>
  <text x="500" y="1004" text-anchor="middle" fill="#636380" font-size="10" letter-spacing="2">TECH STACK</text>
  <text x="90"  y="1028" fill="#a5b4fc" font-size="15" font-weight="600">Python</text>
  <text x="220" y="1028" fill="#a5b4fc" font-size="15" font-weight="600">SQL</text>
  <text x="320" y="1028" fill="#a5b4fc" font-size="15" font-weight="600">Power BI</text>
  <text x="460" y="1028" fill="#a5b4fc" font-size="15" font-weight="600">Tableau</text>
  <text x="600" y="1028" fill="#a5b4fc" font-size="15" font-weight="600">Excel</text>
  <text x="710" y="1028" fill="#a5b4fc" font-size="15" font-weight="600">Azure</text>
  <text x="830" y="1028" fill="#a5b4fc" font-size="15" font-weight="600">Spark</text>
  <line x1="200" y1="998" x2="200" y2="1038" stroke="rgba(108,99,255,0.18)" stroke-width="1"/>
  <line x1="295" y1="998" x2="295" y2="1038" stroke="rgba(108,99,255,0.18)" stroke-width="1"/>
  <line x1="437" y1="998" x2="437" y2="1038" stroke="rgba(108,99,255,0.18)" stroke-width="1"/>
  <line x1="580" y1="998" x2="580" y2="1038" stroke="rgba(108,99,255,0.18)" stroke-width="1"/>
  <line x1="692" y1="998" x2="692" y2="1038" stroke="rgba(108,99,255,0.18)" stroke-width="1"/>
  <line x1="810" y1="998" x2="810" y2="1038" stroke="rgba(108,99,255,0.18)" stroke-width="1"/>

  <!-- PROGRESS BARS -->
  <rect x="32" y="1064" width="456" height="108" rx="14" fill="rgba(108,99,255,0.07)" stroke="rgba(108,99,255,0.20)" stroke-width="1"/>
  <text x="52" y="1090" fill="#a5b4fc" font-size="13" font-weight="600">SKILL PROFICIENCY</text>
  <text x="52" y="1112" fill="#818cf8" font-size="11">SQL</text>
  <rect x="110" y="1100" width="354" height="8" rx="4" fill="rgba(108,99,255,0.15)"/>
  <rect x="110" y="1100" width="0" height="8" rx="4" fill="#6C63FF">
    <animate attributeName="width" from="0" to="337" dur="2s" fill="freeze" repeatCount="indefinite"/>
  </rect>
  <text x="472" y="1112" fill="#c7d2fe" font-size="11">95%</text>
  <text x="52" y="1136" fill="#818cf8" font-size="11">Python</text>
  <rect x="110" y="1124" width="354" height="8" rx="4" fill="rgba(108,99,255,0.15)"/>
  <rect x="110" y="1124" width="0" height="8" rx="4" fill="#4F46E5">
    <animate attributeName="width" from="0" to="319" dur="2.2s" fill="freeze" repeatCount="indefinite"/>
  </rect>
  <text x="472" y="1136" fill="#c7d2fe" font-size="11">90%</text>
  <text x="52" y="1160" fill="#818cf8" font-size="11">Power BI</text>
  <rect x="110" y="1148" width="354" height="8" rx="4" fill="rgba(108,99,255,0.15)"/>
  <rect x="110" y="1148" width="0" height="8" rx="4" fill="#818cf8">
    <animate attributeName="width" from="0" to="301" dur="2.1s" fill="freeze" repeatCount="indefinite"/>
  </rect>
  <text x="472" y="1160" fill="#c7d2fe" font-size="11">85%</text>

  <!-- HEATMAP -->
  <rect x="510" y="1064" width="458" height="108" rx="14" fill="rgba(108,99,255,0.07)" stroke="rgba(108,99,255,0.20)" stroke-width="1"/>
  <text x="530" y="1090" fill="#a5b4fc" font-size="13" font-weight="600">ACTIVITY HEATMAP</text>
  <g transform="translate(530, 1100)">
    <text x="-8" y="11"  fill="#636380" font-size="9" text-anchor="end">Mon</text>
    <text x="-8" y="27"  fill="#636380" font-size="9" text-anchor="end">Wed</text>
    <text x="-8" y="43"  fill="#636380" font-size="9" text-anchor="end">Fri</text>
    <rect x="0"   y="0" width="12" height="12" rx="2" fill="#6C63FF" opacity="0.2"/>
    <rect x="16"  y="0" width="12" height="12" rx="2" fill="#6C63FF" opacity="0.5"/>
    <rect x="32"  y="0" width="12" height="12" rx="2" fill="#6C63FF" opacity="0.3"/>
    <rect x="48"  y="0" width="12" height="12" rx="2" fill="#6C63FF" opacity="0.8"/>
    <rect x="64"  y="0" width="12" height="12" rx="2" fill="#6C63FF" opacity="0.6"/>
    <rect x="80"  y="0" width="12" height="12" rx="2" fill="#6C63FF" opacity="1.0"/>
    <rect x="96"  y="0" width="12" height="12" rx="2" fill="#6C63FF" opacity="0.7"/>
    <rect x="112" y="0" width="12" height="12" rx="2" fill="#6C63FF" opacity="0.4"/>
    <rect x="128" y="0" width="12" height="12" rx="2" fill="#6C63FF" opacity="0.9"/>
    <rect x="144" y="0" width="12" height="12" rx="2" fill="#6C63FF" opacity="0.5"/>
    <rect x="160" y="0" width="12" height="12" rx="2" fill="#6C63FF" opacity="0.8"/>
    <rect x="176" y="0" width="12" height="12" rx="2" fill="#6C63FF" opacity="0.3"/>
    <rect x="192" y="0" width="12" height="12" rx="2" fill="#6C63FF" opacity="0.6"/>
    <rect x="208" y="0" width="12" height="12" rx="2" fill="#6C63FF" opacity="0.2"/>
    <rect x="224" y="0" width="12" height="12" rx="2" fill="#6C63FF" opacity="0.7"/>
    <rect x="0"   y="16" width="12" height="12" rx="2" fill="#6C63FF" opacity="0.6"/>
    <rect x="16"  y="16" width="12" height="12" rx="2" fill="#6C63FF" opacity="0.3"/>
    <rect x="32"  y="16" width="12" height="12" rx="2" fill="#6C63FF" opacity="0.9"/>
    <rect x="48"  y="16" width="12" height="12" rx="2" fill="#6C63FF" opacity="0.4"/>
    <rect x="64"  y="16" width="12" height="12" rx="2" fill="#6C63FF" opacity="1.0"/>
    <rect x="80"  y="16" width="12" height="12" rx="2" fill="#818cf8" opacity="0.8"/>
    <rect x="96"  y="16" width="12" height="12" rx="2" fill="#6C63FF" opacity="0.5"/>
    <rect x="112" y="16" width="12" height="12" rx="2" fill="#6C63FF" opacity="0.7"/>
    <rect x="128" y="16" width="12" height="12" rx="2" fill="#6C63FF" opacity="0.2"/>
    <rect x="144" y="16" width="12" height="12" rx="2" fill="#6C63FF" opacity="0.9"/>
    <rect x="160" y="16" width="12" height="12" rx="2" fill="#6C63FF" opacity="0.6"/>
    <rect x="176" y="16" width="12" height="12" rx="2" fill="#6C63FF" opacity="0.4"/>
    <rect x="192" y="16" width="12" height="12" rx="2" fill="#6C63FF" opacity="0.8"/>
    <rect x="208" y="16" width="12" height="12" rx="2" fill="#6C63FF" opacity="0.3"/>
    <rect x="224" y="16" width="12" height="12" rx="2" fill="#818cf8" opacity="1.0"/>
    <rect x="0"   y="32" width="12" height="12" rx="2" fill="#6C63FF" opacity="0.4"/>
    <rect x="16"  y="32" width="12" height="12" rx="2" fill="#6C63FF" opacity="0.8"/>
    <rect x="32"  y="32" width="12" height="12" rx="2" fill="#6C63FF" opacity="0.5"/>
    <rect x="48"  y="32" width="12" height="12" rx="2" fill="#6C63FF" opacity="0.3"/>
    <rect x="64"  y="32" width="12" height="12" rx="2" fill="#6C63FF" opacity="0.7"/>
    <rect x="80"  y="32" width="12" height="12" rx="2" fill="#6C63FF" opacity="0.9"/>
    <rect x="96"  y="32" width="12" height="12" rx="2" fill="#818cf8" opacity="0.6"/>
    <rect x="112" y="32" width="12" height="12" rx="2" fill="#6C63FF" opacity="1.0"/>
    <rect x="128" y="32" width="12" height="12" rx="2" fill="#6C63FF" opacity="0.4"/>
    <rect x="144" y="32" width="12" height="12" rx="2" fill="#6C63FF" opacity="0.8"/>
    <rect x="160" y="32" width="12" height="12" rx="2" fill="#6C63FF" opacity="0.2"/>
    <rect x="176" y="32" width="12" height="12" rx="2" fill="#6C63FF" opacity="0.7"/>
    <rect x="192" y="32" width="12" height="12" rx="2" fill="#818cf8" opacity="0.5"/>
    <rect x="208" y="32" width="12" height="12" rx="2" fill="#6C63FF" opacity="0.9"/>
    <rect x="224" y="32" width="12" height="12" rx="2" fill="#6C63FF" opacity="0.6"/>
  </g>

  <!-- FOOTER -->
  <rect x="0" y="1162" width="1000" height="32" fill="rgba(108,99,255,0.06)"/>
  <line x1="0" y1="1162" x2="1000" y2="1162" stroke="rgba(108,99,255,0.18)" stroke-width="1"/>
  <text x="500" y="1183" text-anchor="middle" fill="#4a4a6e" font-size="11" letter-spacing="1">Tahera Farheen · Data Analyst · Power BI · SQL · Python</text>

</svg>
